Coordinates
version=1
nRows=8
nColumns=36
inDegrees=yes

Units are S.I. units (second, meters, Newtons, ...)
If the header above contains a line with 'inDegrees', this indicates whether rotational values are in degrees (yes) or radians (no).

endheader
time	pelvis_tilt	pelvis_list	pelvis_rotation	pelvis_tx	pelvis_ty	pelvis_tz	hip_flexion_r	hip_adduction_r	hip_rotation_r	knee_angle_r	knee_angle_r_beta	ankle_angle_r	subtalar_angle_r	mtp_angle_r	hip_flexion_l	hip_adduction_l	hip_rotation_l	knee_angle_l	knee_angle_l_beta	ankle_angle_l	subtalar_angle_l	mtp_angle_l	lumbar_extension	lumbar_bending	lumbar_rotation	arm_flex_r	arm_add_r	arm_rot_r	elbow_flex_r	pro_sup_r	arm_flex_l	arm_add_l	arm_rot_l	elbow_flex_l	pro_sup_l
      1.46250000	      4.79487081	      0.16321299	      0.55765145	     -0.91149759	      1.27810962	     -0.01608790	     -2.68548679	      0.65953079	      0.98983710	      7.70674728	      0.13450811	     -2.13256232	    -31.54940836	     -7.49999987	     -1.54017823	     -2.21438159	      8.93863321	     12.40050781	      0.21642969	      7.76503281	    -14.94266153	     -7.49999987	    -21.52664672	     -0.71488161	      1.67171073	      3.21619951	     -7.60241783	      4.24309973	     25.76729407	     82.46206848	      2.20863982	     -7.68494768	      7.38708490	     24.11251054	     88.78167137
      1.46666670	      4.55382477	      0.14087016	      0.56075849	     -0.91194868	      1.27517649	     -0.01669802	     -2.34669250	      0.70309152	      1.13710636	      7.82520829	      0.13657565	     -1.85819313	    -31.50268567	     -7.49999987	     -1.18861019	     -2.22668166	      8.91249733	     12.57002808	      0.21938838	      7.90505538	    -14.95629010	     -7.49999987	    -21.31270526	     -0.69415909	      1.61949624	      3.13464840	     -7.62910388	      3.42825070	     26.00026586	     84.55668893	      2.11869881	     -7.69295929	      6.32776921	     24.27376504	     91.48963586
      1.47083330	      4.38057133	      0.15276128	      0.58564357	     -0.91309915	      1.27466802	     -0.01745600	     -2.07411074	      0.68896880	      1.18499137	      7.99557445	      0.13954910	     -1.72614804	    -31.57375431	     -7.49999987	     -0.91051704	     -2.17900162	      8.96305737	     12.69819763	      0.22162536	      7.92329637	    -15.03279087	     -7.49999987	    -21.18823366	     -0.71733788	      1.56147122	      3.10026411	     -7.74044266	      3.43444586	     26.23893901	     84.48773055	      2.11817827	     -7.79006413	      6.51614305	     24.33591756	     90.51921885
      1.47500000	      4.00415751	      0.15005824	      0.50801126	     -0.91180678	      1.27709963	     -0.01819273	     -1.55198508	      0.66702927	      1.35598583	      8.20451948	      0.14319588	     -1.75019228	    -31.68202626	     -7.49999987	     -0.44856103	     -2.13184864	      8.85752975	     12.81837788	      0.22372290	      8.10054439	    -14.94546250	     -7.49999987	    -20.73996274	     -0.70618833	      1.55489637	      3.09185993	     -7.84879561	      3.55762890	     26.21087959	     83.58751517	      2.08924471	     -7.77301082	      6.70941235	     24.20879861	     88.90679452
      1.47916670	      3.90810649	      0.16714733	      0.49448409	     -0.91286055	      1.27344444	     -0.01855878	     -1.33233442	      0.57222028	      1.05082345	      8.41699938	      0.14690435	     -1.62275841	    -31.74462345	     -7.49999987	     -0.23141782	     -2.03103452	      8.92473869	     13.01424853	      0.22714149	      8.11888438	    -15.21080390	     -7.49999987	    -20.72286193	     -0.67522396	      1.49856272	      3.08106423	     -8.01744425	      3.36687376	     26.46716564	     83.75267095	      2.04100965	     -7.76659149	      6.32982820	     24.38028615	     89.90244479
      1.48333330	      3.01361851	      0.12508996	      0.53674210	     -0.91331889	      1.27322370	     -0.01828393	     -0.07143086	      0.60233124	      0.96944639	      8.91227093	      0.15554847	     -1.22005600	    -31.54488192	     -7.49999987	      1.02098303	     -2.03965485	      8.68984199	     13.48220520	      0.23530887	      8.60263890	    -14.68573573	     -7.49999987	    -19.61401549	     -0.60732379	      1.42116064	      2.88150159	     -8.10166303	      3.26371462	     26.40947864	     81.67777735	      1.87531109	     -7.77022433	      6.19061258	     24.28143014	     87.42922083
      1.48750000	      3.31939424	      0.17637660	      0.43395385	     -0.91294035	      1.27399479	     -0.01813645	     -0.29971823	      0.55686024	      1.31439015	      9.06213248	      0.15816405	     -1.36767204	    -31.82137891	     -7.49999987	      0.66704503	     -1.92429293	      8.90513673	     13.46758500	      0.23505370	      8.30331573	    -15.38138327	     -7.49999987	    -20.13335876	     -0.67140328	      1.47438614	      3.03433064	     -8.27573850	      3.56239058	     26.70369875	     82.64467678	      2.02483579	     -7.88890726	      6.44785588	     24.46759754	     88.27195465
      1.49166670	      3.04524267	      0.17676107	      0.43646039	     -0.91193882	      1.27145407	     -0.01905008	      0.16619727	      0.53369711	      1.32233770	      9.42566543	      0.16450890	     -1.26145920	    -31.88302905	     -7.49999987	      1.10113527	     -1.88548889	      8.88732133	     13.76640889	      0.24026916	      8.50231400	    -15.30725813	     -7.49999987	    -19.80433924	     -0.63767932	      1.43520795	      2.92441316	     -8.32698605	      2.80222395	     26.87186639	     84.78377635	      1.88702377	     -7.78832870	      5.04957376	     24.61546757	     91.71892271
